<svg width="16" height="16" viewBox="0 0 16 16" fill="none" xmlns="http://www.w3.org/2000/svg">
<mask id="mask0_2001_16155" style="mask-type:alpha" maskUnits="userSpaceOnUse" x="2" y="2" width="12" height="12">
<path d="M8 2C11.3137 2 14 4.68629 14 8C14 11.3137 11.3137 14 8 14C4.68629 14 2 11.3137 2 8C2 4.68629 4.68629 2 8 2ZM6.35355 5.64645C6.15829 5.45118 5.84171 5.45118 5.64645 5.64645C5.45118 5.84171 5.45118 6.15829 5.64645 6.35355L7.293 8L5.64645 9.64645C5.47288 9.82001 5.4536 10.0894 5.58859 10.2843L5.64645 10.3536C5.84171 10.5488 6.15829 10.5488 6.35355 10.3536L8 8.707L9.64645 10.3536C9.82001 10.5271 10.0894 10.5464 10.2843 10.4114L10.3536 10.3536C10.5488 10.1583 10.5488 9.84171 10.3536 9.64645L8.707 8L10.3536 6.35355C10.5271 6.17999 10.5464 5.91056 10.4114 5.71569L10.3536 5.64645C10.1583 5.45118 9.84171 5.45118 9.64645 5.64645L8 7.293L6.35355 5.64645Z" fill="black"/>
</mask>
<g mask="url(#mask0_2001_16155)">
<path d="M8 2C11.3137 2 14 4.68629 14 8C14 11.3137 11.3137 14 8 14C4.68629 14 2 11.3137 2 8C2 4.68629 4.68629 2 8 2ZM6.35355 5.64645C6.15829 5.45118 5.84171 5.45118 5.64645 5.64645C5.45118 5.84171 5.45118 6.15829 5.64645 6.35355L7.293 8L5.64645 9.64645C5.47288 9.82001 5.4536 10.0894 5.58859 10.2843L5.64645 10.3536C5.84171 10.5488 6.15829 10.5488 6.35355 10.3536L8 8.707L9.64645 10.3536C9.82001 10.5271 10.0894 10.5464 10.2843 10.4114L10.3536 10.3536C10.5488 10.1583 10.5488 9.84171 10.3536 9.64645L8.707 8L10.3536 6.35355C10.5271 6.17999 10.5464 5.91056 10.4114 5.71569L10.3536 5.64645C10.1583 5.45118 9.84171 5.45118 9.64645 5.64645L8 7.293L6.35355 5.64645Z" fill="#403A6D"/>
</g>
</svg>
