<svg width="16" height="17" viewBox="0 0 16 17" fill="none" xmlns="http://www.w3.org/2000/svg">
<g clip-path="url(#clip0_1978_2608)">
<path d="M8 16.5C12.4183 16.5 16 12.9183 16 8.5C16 4.08172 12.4183 0.5 8 0.5C3.58172 0.5 0 4.08172 0 8.5C0 12.9183 3.58172 16.5 8 16.5Z" fill="#F0F0F0"/>
<path d="M15.5024 11.2825C15.824 10.4158 16 9.47844 16 8.49988C16 7.52132 15.824 6.58394 15.5024 5.71729H0.497594C0.176031 6.58394 0 7.52132 0 8.49988C0 9.47844 0.176031 10.4158 0.497594 11.2825L8 11.9781L15.5024 11.2825Z" fill="#0052B4"/>
<path d="M8.00045 16.5001C11.4402 16.5001 14.3725 14.3291 15.5029 11.2827H0.498047C1.62839 14.3291 4.56073 16.5001 8.00045 16.5001Z" fill="#D80027"/>
</g>
<defs>
<clipPath id="clip0_1978_2608">
<rect width="16" height="16" fill="white" transform="translate(0 0.5)"/>
</clipPath>
</defs>
</svg>
