<svg width="94" height="94" viewBox="0 0 94 94" fill="none" xmlns="http://www.w3.org/2000/svg">
<path d="M60.9281 47.004C58.7477 47.004 56.6964 45.8389 55.5868 43.9746L47.291 30.1741L39.0081 43.9746C37.8856 45.8518 35.8343 47.017 33.6539 47.017C33.0733 47.017 32.4927 46.9393 31.9379 46.771L14.2626 41.6961V64.7401C14.2626 66.6432 15.5527 68.3003 17.3848 68.7534L45.2783 75.7573C46.5943 76.0809 47.9748 76.0809 49.2779 75.7573L77.1972 68.7534C79.0292 68.2874 80.3194 66.6303 80.3194 64.7401V41.6961L62.6441 46.758C62.0893 46.9263 61.5087 47.004 60.9281 47.004ZM88.3572 32.4785L81.7128 19.1699C81.3128 18.3673 80.4484 17.9012 79.5582 18.0177L47.291 22.1475L59.1219 41.8385C59.6121 42.6541 60.5927 43.0425 61.5087 42.7836L87.0412 35.469C88.3185 35.0936 88.9378 33.6695 88.3572 32.4785ZM12.8692 19.1699L6.22479 32.4785C5.63131 33.6695 6.2635 35.0936 7.52786 35.4561L33.0604 42.7706C33.9764 43.0296 34.9569 42.6412 35.4472 41.8256L47.291 22.1475L15.0109 18.0177C14.1206 17.9142 13.2691 18.3673 12.8692 19.1699Z" fill="#6D47D1"/>
</svg>
