<svg width="94" height="94" viewBox="0 0 94 94" fill="none" xmlns="http://www.w3.org/2000/svg">
<path d="M37.5625 18C34.1754 18 31.366 20.3223 30.5617 23.4602C30.4711 23.4602 30.4031 23.4375 30.3125 23.4375C26.3137 23.4375 23.0625 26.6887 23.0625 30.6875C23.0625 31.2313 23.1305 31.7637 23.2551 32.2734C19.9473 33.6328 17.625 36.8727 17.625 40.6562C17.625 42.0836 17.9875 43.409 18.5652 44.6098C15.8465 46.173 14 49.073 14 52.4375C14 56.2098 16.3109 59.4496 19.5961 60.809C19.4941 61.3301 19.4375 61.8625 19.4375 62.4062C19.4375 66.9148 23.0852 70.5625 27.5938 70.5625C28.0582 70.5625 28.5113 70.5059 28.9531 70.4266C30.0406 73.6551 33.0539 76 36.6562 76C41.1648 76 44.8125 72.3523 44.8125 67.8438V25.25C44.8125 21.2512 41.5613 18 37.5625 18ZM79.25 52.4375C79.25 49.073 77.4035 46.173 74.6848 44.6098C75.2738 43.409 75.625 42.0836 75.625 40.6562C75.625 36.8727 73.3027 33.6328 69.9949 32.2734C70.1082 31.7637 70.1875 31.2313 70.1875 30.6875C70.1875 26.6887 66.9363 23.4375 62.9375 23.4375C62.8469 23.4375 62.7676 23.4602 62.6883 23.4602C61.884 20.3223 59.0746 18 55.6875 18C51.6887 18 48.4375 21.2398 48.4375 25.25V67.8438C48.4375 72.3523 52.0852 76 56.5938 76C60.1961 76 63.2094 73.6551 64.2969 70.4266C64.7387 70.5059 65.1918 70.5625 65.6562 70.5625C70.1648 70.5625 73.8125 66.9148 73.8125 62.4062C73.8125 61.8625 73.7559 61.3301 73.6539 60.809C76.9391 59.4496 79.25 56.2098 79.25 52.4375Z" fill="#6D47D1"/>
</svg>
