<svg width="94" height="94" viewBox="0 0 94 94" fill="none" xmlns="http://www.w3.org/2000/svg">
<path d="M30.8571 47C38.871 47 45.3571 40.5138 45.3571 32.5C45.3571 24.4862 38.871 18 30.8571 18C22.8433 18 16.3571 24.4862 16.3571 32.5C16.3571 40.5138 22.8433 47 30.8571 47ZM40.8 51.1429H39.7254C37.0326 52.4375 34.042 53.2143 30.8571 53.2143C27.6723 53.2143 24.6946 52.4375 21.9888 51.1429H20.9143C12.6804 51.1429 6 57.8232 6 66.0571V69.7857C6 73.2165 8.78348 76 12.2143 76H49.5C52.9308 76 55.7143 73.2165 55.7143 69.7857V66.0571C55.7143 57.8232 49.0339 51.1429 40.8 51.1429ZM68.1429 47C75.0045 47 80.5714 41.433 80.5714 34.5714C80.5714 27.7098 75.0045 22.1429 68.1429 22.1429C61.2812 22.1429 55.7143 27.7098 55.7143 34.5714C55.7143 41.433 61.2812 47 68.1429 47ZM74.3571 51.1429H73.8652C72.0656 51.7643 70.1625 52.1786 68.1429 52.1786C66.1232 52.1786 64.2201 51.7643 62.4205 51.1429H61.9286C59.2875 51.1429 56.8536 51.9067 54.7174 53.1366C57.8763 56.5415 59.8571 61.0598 59.8571 66.0571V71.0286C59.8571 71.3134 59.7924 71.5853 59.7795 71.8571H82.6429C86.0737 71.8571 88.8571 69.0737 88.8571 65.6429C88.8571 57.629 82.371 51.1429 74.3571 51.1429Z" fill="#6D47D1"/>
</svg>
