<svg width="94" height="94" viewBox="0 0 94 94" fill="none" xmlns="http://www.w3.org/2000/svg">
<path d="M91.4058 32.0323L50.4363 19.4451C48.2038 18.7592 45.7951 18.7592 43.564 19.4451L2.59309 32.0323C-0.864363 33.0942 -0.864363 37.6665 2.59309 38.7284L9.73565 40.9227C8.16849 42.86 7.20498 45.2232 7.10951 47.8112C5.6951 48.6219 4.69928 50.0848 4.69928 51.8312C4.69928 53.4145 5.53354 54.7466 6.73498 55.5985L2.98525 72.4716C2.65918 73.9389 3.77544 75.3312 5.27797 75.3312H13.5192C15.0232 75.3312 16.1394 73.9389 15.8134 72.4716L12.0636 55.5985C13.2651 54.7466 14.0993 53.4145 14.0993 51.8312C14.0993 50.1318 13.149 48.7101 11.7992 47.8846C11.9109 45.6785 13.0389 43.728 14.8381 42.4913L43.5626 51.3171C44.8933 51.7254 47.446 52.2351 50.4349 51.3171L91.4058 38.7299C94.8647 37.6665 94.8647 33.0957 91.4058 32.0323ZM51.8155 55.81C47.6251 57.0966 44.0546 56.3858 42.1819 55.81L20.882 49.2667L18.7993 65.9312C18.7993 71.1233 31.4248 75.3312 46.9994 75.3312C62.5741 75.3312 75.1996 71.1233 75.1996 65.9312L73.1169 49.2652L51.8155 55.81Z" fill="#6D47D1"/>
</svg>
