<svg width="94" height="94" viewBox="0 0 94 94" fill="none" xmlns="http://www.w3.org/2000/svg">
<path d="M57.3488 35.7742C55.6532 25.3319 51.654 18 47 18C42.346 18 38.3468 25.3319 36.6512 35.7742H57.3488ZM35.7742 47C35.7742 49.596 35.9145 52.0867 36.1601 54.4839H57.8282C58.0738 52.0867 58.2141 49.596 58.2141 47C58.2141 44.404 58.0738 41.9133 57.8282 39.5161H36.1601C35.9145 41.9133 35.7742 44.404 35.7742 47ZM73.7432 35.7742C70.3988 27.8343 63.6282 21.6952 55.2673 19.2161C58.1206 23.1685 60.0851 29.1206 61.1141 35.7742H73.7432ZM38.721 19.2161C30.3718 21.6952 23.5895 27.8343 20.2569 35.7742H32.8859C33.9032 29.1206 35.8677 23.1685 38.721 19.2161ZM74.9944 39.5161H61.5819C61.8274 41.9718 61.9677 44.4859 61.9677 47C61.9677 49.5141 61.8274 52.0282 61.5819 54.4839H74.9827C75.6258 52.0867 75.9883 49.596 75.9883 47C75.9883 44.404 75.6258 41.9133 74.9944 39.5161ZM32.0323 47C32.0323 44.4859 32.1726 41.9718 32.4181 39.5161H19.0056C18.3742 41.9133 18 44.404 18 47C18 49.596 18.3742 52.0867 19.0056 54.4839H32.4065C32.1726 52.0282 32.0323 49.5141 32.0323 47ZM36.6512 58.2258C38.3468 68.6681 42.346 76 47 76C51.654 76 55.6532 68.6681 57.3488 58.2258H36.6512ZM55.279 74.7839C63.6282 72.3048 70.4105 66.1657 73.7548 58.2258H61.1258C60.0968 64.8794 58.1323 70.8315 55.279 74.7839ZM20.2569 58.2258C23.6012 66.1657 30.3718 72.3048 38.7327 74.7839C35.8794 70.8315 33.9149 64.8794 32.8859 58.2258H20.2569Z" fill="#6D47D1"/>
</svg>
