<svg width="94" height="94" viewBox="0 0 94 94" fill="none" xmlns="http://www.w3.org/2000/svg">
<path d="M55.4286 57.3571C55.4286 58.5016 54.5016 59.4286 53.3571 59.4286H40.9286C39.7841 59.4286 38.8571 58.5016 38.8571 57.3571V51.1429H14V69.7857C14 73.1 16.9 76 20.2143 76H74.0714C77.3857 76 80.2857 73.1 80.2857 69.7857V51.1429H55.4286V57.3571ZM74.0714 30.4286H63.7143V24.2143C63.7143 20.9 60.8143 18 57.5 18H36.7857C33.4714 18 30.5714 20.9 30.5714 24.2143V30.4286H20.2143C16.9 30.4286 14 33.3286 14 36.6429V47H80.2857V36.6429C80.2857 33.3286 77.3857 30.4286 74.0714 30.4286ZM55.4286 30.4286H38.8571V26.2857H55.4286V30.4286Z" fill="#6D47D1"/>
</svg>
