<svg width="20" height="20" viewBox="0 0 20 20" fill="none" xmlns="http://www.w3.org/2000/svg">
<path d="M8.33333 2.5V4.16667H11.6667V2.5H13.3333V4.16667H16.6667C17.1269 4.16667 17.5 4.53976 17.5 5V16.6667C17.5 17.1269 17.1269 17.5 16.6667 17.5H3.33333C2.8731 17.5 2.5 17.1269 2.5 16.6667V5C2.5 4.53976 2.8731 4.16667 3.33333 4.16667H6.66667V2.5H8.33333ZM15.8325 10.8333H4.16583L4.16667 15.8333H15.8333L15.8325 10.8333ZM13.3333 12.5C13.7936 12.5 14.1667 12.8731 14.1667 13.3333C14.1667 13.7936 13.7936 14.1667 13.3333 14.1667C12.8731 14.1667 12.5 13.7936 12.5 13.3333C12.5 12.8731 12.8731 12.5 13.3333 12.5ZM6.66667 5.83333H4.16667L4.16583 9.16667H15.8325L15.8333 5.83333H13.3333V7.5H11.6667V5.83333H8.33333V7.5H6.66667V5.83333Z" fill="#9A98A8"/>
</svg>
