<svg width="16" height="16" viewBox="0 0 16 16" fill="none" xmlns="http://www.w3.org/2000/svg">
<mask id="mask0_3546_27434" style="mask-type:alpha" maskUnits="userSpaceOnUse" x="0" y="0" width="16" height="16">
<path d="M13.9 2.09978C12.618 0.767496 10.8489 0.0146484 8.99999 0.0146484C7.15111 0.0146484 5.38193 0.767496 4.09999 2.09978C1.60731 4.52354 1.30733 8.4233 3.39999 11.1998L0.299987 14.2998C-0.0811561 14.6886 -0.0811561 15.3109 0.299987 15.6998C0.490155 15.8799 0.738375 15.9863 0.999987 15.9998C1.26622 16.0083 1.52254 15.8984 1.69999 15.6998L4.79999 12.5998C6.02131 13.49 7.48882 13.9791 8.99999 13.9998C10.8535 14.0077 12.6274 13.2474 13.9 11.8998C15.2323 10.6178 15.9851 8.84866 15.9851 6.99978C15.9851 5.1509 15.2323 3.38172 13.9 2.09978ZM12.5 10.4998C11.5927 11.4666 10.3258 12.015 8.99999 12.015C7.67413 12.015 6.40732 11.4666 5.49999 10.4998C4.53321 9.59244 3.9848 8.32564 3.9848 6.99978C3.9848 5.67392 4.53321 4.40711 5.49999 3.49978C6.40732 2.53301 7.67413 1.98459 8.99999 1.98459C10.3258 1.98459 11.5927 2.53301 12.5 3.49978C13.4668 4.40711 14.0152 5.67392 14.0152 6.99978C14.0152 8.32564 13.4668 9.59244 12.5 10.4998Z" fill="#6F676C"/>
</mask>
<g mask="url(#mask0_3546_27434)">
<path d="M13.9 2.09978C12.618 0.767496 10.8489 0.0146484 8.99999 0.0146484C7.15111 0.0146484 5.38193 0.767496 4.09999 2.09978C1.60731 4.52354 1.30733 8.4233 3.39999 11.1998L0.299987 14.2998C-0.0811561 14.6886 -0.0811561 15.3109 0.299987 15.6998C0.490155 15.8799 0.738375 15.9863 0.999987 15.9998C1.26622 16.0083 1.52254 15.8984 1.69999 15.6998L4.79999 12.5998C6.02131 13.49 7.48882 13.9791 8.99999 13.9998C10.8535 14.0077 12.6274 13.2474 13.9 11.8998C15.2323 10.6178 15.9851 8.84866 15.9851 6.99978C15.9851 5.1509 15.2323 3.38172 13.9 2.09978ZM12.5 10.4998C11.5927 11.4666 10.3258 12.015 8.99999 12.015C7.67413 12.015 6.40732 11.4666 5.49999 10.4998C4.53321 9.59244 3.9848 8.32564 3.9848 6.99978C3.9848 5.67392 4.53321 4.40711 5.49999 3.49978C6.40732 2.53301 7.67413 1.98459 8.99999 1.98459C10.3258 1.98459 11.5927 2.53301 12.5 3.49978C13.4668 4.40711 14.0152 5.67392 14.0152 6.99978C14.0152 8.32564 13.4668 9.59244 12.5 10.4998Z" fill="#666666"/>
</g>
</svg>
