<svg width="20" height="20" viewBox="0 0 20 20" fill="none" xmlns="http://www.w3.org/2000/svg">
<mask id="mask0_1498_21200" style="mask-type:alpha" maskUnits="userSpaceOnUse" x="3" y="3" width="14" height="14">
<path d="M14.9163 5.08331C13.848 3.97308 12.3737 3.3457 10.8329 3.3457C9.29221 3.3457 7.8179 3.97308 6.74961 5.08331C4.67238 7.10311 4.4224 10.3529 6.16627 12.6666L3.58294 15.25C3.26532 15.574 3.26532 16.0926 3.58294 16.4166C3.74141 16.5668 3.94826 16.6554 4.16627 16.6666C4.38813 16.6737 4.60174 16.5822 4.74961 16.4166L7.33294 13.8333C8.35071 14.5751 9.57364 14.9828 10.8329 15C12.3775 15.0066 13.8558 14.373 14.9163 13.25C16.0265 12.1817 16.6539 10.7074 16.6539 9.16664C16.6539 7.62591 16.0265 6.1516 14.9163 5.08331ZM13.7496 12.0833C12.9935 12.889 11.9378 13.346 10.8329 13.346C9.72806 13.346 8.67239 12.889 7.91627 12.0833C7.11063 11.3272 6.65362 10.2715 6.65362 9.16664C6.65362 8.06176 7.11063 7.00609 7.91627 6.24998C8.67239 5.44433 9.72806 4.98732 10.8329 4.98732C11.9378 4.98732 12.9935 5.44433 13.7496 6.24998C14.5553 7.00609 15.0123 8.06176 15.0123 9.16664C15.0123 10.2715 14.5553 11.3272 13.7496 12.0833Z" fill="#6F676C"/>
</mask>
<g mask="url(#mask0_1498_21200)">
<path d="M14.9163 5.08331C13.848 3.97308 12.3737 3.3457 10.8329 3.3457C9.29221 3.3457 7.8179 3.97308 6.74961 5.08331C4.67238 7.10311 4.4224 10.3529 6.16627 12.6666L3.58294 15.25C3.26532 15.574 3.26532 16.0926 3.58294 16.4166C3.74141 16.5668 3.94826 16.6554 4.16627 16.6666C4.38813 16.6737 4.60174 16.5822 4.74961 16.4166L7.33294 13.8333C8.35071 14.5751 9.57364 14.9828 10.8329 15C12.3775 15.0066 13.8558 14.373 14.9163 13.25C16.0265 12.1817 16.6539 10.7074 16.6539 9.16664C16.6539 7.62591 16.0265 6.1516 14.9163 5.08331ZM13.7496 12.0833C12.9935 12.889 11.9378 13.346 10.8329 13.346C9.72806 13.346 8.67239 12.889 7.91627 12.0833C7.11063 11.3272 6.65362 10.2715 6.65362 9.16664C6.65362 8.06176 7.11063 7.00609 7.91627 6.24998C8.67239 5.44433 9.72806 4.98732 10.8329 4.98732C11.9378 4.98732 12.9935 5.44433 13.7496 6.24998C14.5553 7.00609 15.0123 8.06176 15.0123 9.16664C15.0123 10.2715 14.5553 11.3272 13.7496 12.0833Z" fill="#A5A0C5"/>
</g>
</svg>
