<svg width="20" height="20" viewBox="0 0 20 20" fill="none" xmlns="http://www.w3.org/2000/svg">
<mask id="mask0_547_3362" style="mask-type:alpha" maskUnits="userSpaceOnUse" x="3" y="3" width="14" height="14">
<path d="M14.9167 5.08331C13.8484 3.97308 12.3741 3.3457 10.8333 3.3457C9.2926 3.3457 7.81829 3.97308 6.75 5.08331C4.67278 7.10311 4.42279 10.3529 6.16667 12.6666L3.58334 15.25C3.26572 15.574 3.26572 16.0926 3.58334 16.4166C3.74181 16.5668 3.94866 16.6554 4.16667 16.6666C4.38853 16.6737 4.60214 16.5822 4.75 16.4166L7.33334 13.8333C8.35111 14.5751 9.57403 14.9828 10.8333 15C12.3779 15.0066 13.8562 14.373 14.9167 13.25C16.0269 12.1817 16.6543 10.7074 16.6543 9.16664C16.6543 7.62591 16.0269 6.1516 14.9167 5.08331ZM13.75 12.0833C12.9939 12.889 11.9382 13.346 10.8333 13.346C9.72846 13.346 8.67278 12.889 7.91667 12.0833C7.11103 11.3272 6.65402 10.2715 6.65402 9.16664C6.65402 8.06176 7.11103 7.00609 7.91667 6.24998C8.67278 5.44433 9.72846 4.98732 10.8333 4.98732C11.9382 4.98732 12.9939 5.44433 13.75 6.24998C14.5556 7.00609 15.0127 8.06176 15.0127 9.16664C15.0127 10.2715 14.5556 11.3272 13.75 12.0833Z" fill="#6F676C"/>
</mask>
<g mask="url(#mask0_547_3362)">
<path d="M14.9167 5.08331C13.8484 3.97308 12.3741 3.3457 10.8333 3.3457C9.2926 3.3457 7.81829 3.97308 6.75 5.08331C4.67278 7.10311 4.42279 10.3529 6.16667 12.6666L3.58334 15.25C3.26572 15.574 3.26572 16.0926 3.58334 16.4166C3.74181 16.5668 3.94866 16.6554 4.16667 16.6666C4.38853 16.6737 4.60214 16.5822 4.75 16.4166L7.33334 13.8333C8.35111 14.5751 9.57403 14.9828 10.8333 15C12.3779 15.0066 13.8562 14.373 14.9167 13.25C16.0269 12.1817 16.6543 10.7074 16.6543 9.16664C16.6543 7.62591 16.0269 6.1516 14.9167 5.08331ZM13.75 12.0833C12.9939 12.889 11.9382 13.346 10.8333 13.346C9.72846 13.346 8.67278 12.889 7.91667 12.0833C7.11103 11.3272 6.65402 10.2715 6.65402 9.16664C6.65402 8.06176 7.11103 7.00609 7.91667 6.24998C8.67278 5.44433 9.72846 4.98732 10.8333 4.98732C11.9382 4.98732 12.9939 5.44433 13.75 6.24998C14.5556 7.00609 15.0127 8.06176 15.0127 9.16664C15.0127 10.2715 14.5556 11.3272 13.75 12.0833Z" fill="#403A6D"/>
</g>
</svg>
