<svg width="16" height="17" viewBox="0 0 16 17" fill="none" xmlns="http://www.w3.org/2000/svg">
<mask id="mask0_1955_12154" style="mask-type:alpha" maskUnits="userSpaceOnUse" x="2" y="2" width="12" height="13">
<path d="M8 2.5C11.3137 2.5 14 5.18629 14 8.5C14 11.8137 11.3137 14.5 8 14.5C4.68629 14.5 2 11.8137 2 8.5C2 5.18629 4.68629 2.5 8 2.5ZM6.35355 6.14645C6.15829 5.95118 5.84171 5.95118 5.64645 6.14645C5.45118 6.34171 5.45118 6.65829 5.64645 6.85355L7.293 8.5L5.64645 10.1464C5.47288 10.32 5.4536 10.5894 5.58859 10.7843L5.64645 10.8536C5.84171 11.0488 6.15829 11.0488 6.35355 10.8536L8 9.207L9.64645 10.8536C9.82001 11.0271 10.0894 11.0464 10.2843 10.9114L10.3536 10.8536C10.5488 10.6583 10.5488 10.3417 10.3536 10.1464L8.707 8.5L10.3536 6.85355C10.5271 6.67999 10.5464 6.41056 10.4114 6.21569L10.3536 6.14645C10.1583 5.95118 9.84171 5.95118 9.64645 6.14645L8 7.793L6.35355 6.14645Z" fill="black"/>
</mask>
<g mask="url(#mask0_1955_12154)">
<path d="M8 2.5C11.3137 2.5 14 5.18629 14 8.5C14 11.8137 11.3137 14.5 8 14.5C4.68629 14.5 2 11.8137 2 8.5C2 5.18629 4.68629 2.5 8 2.5ZM6.35355 6.14645C6.15829 5.95118 5.84171 5.95118 5.64645 6.14645C5.45118 6.34171 5.45118 6.65829 5.64645 6.85355L7.293 8.5L5.64645 10.1464C5.47288 10.32 5.4536 10.5894 5.58859 10.7843L5.64645 10.8536C5.84171 11.0488 6.15829 11.0488 6.35355 10.8536L8 9.207L9.64645 10.8536C9.82001 11.0271 10.0894 11.0464 10.2843 10.9114L10.3536 10.8536C10.5488 10.6583 10.5488 10.3417 10.3536 10.1464L8.707 8.5L10.3536 6.85355C10.5271 6.67999 10.5464 6.41056 10.4114 6.21569L10.3536 6.14645C10.1583 5.95118 9.84171 5.95118 9.64645 6.14645L8 7.793L6.35355 6.14645Z" fill="#323944"/>
</g>
</svg>
