<svg width="80" height="80" viewBox="0 0 80 80" fill="none" xmlns="http://www.w3.org/2000/svg">
<rect width="80" height="80" rx="20" fill="#F5F5F8"/>
<mask id="mask0_1242_15255" style="mask-type:luminance" maskUnits="userSpaceOnUse" x="0" y="0" width="80" height="80">
<rect width="80" height="80" rx="20" fill="white"/>
</mask>
<g mask="url(#mask0_1242_15255)">
<path fill-rule="evenodd" clip-rule="evenodd" d="M69.103 70.719C66.7448 67.3077 63.2681 64.8281 59.2748 63.7094L49.9999 61.1112V54.4448C53.9208 51.4994 56.4957 46.8646 56.6539 41.6217C57.2019 41.8632 57.8068 42.0001 58.4446 42.0001C60.899 42.0001 62.889 40.0103 62.889 37.5557C62.889 35.101 60.899 33.1112 58.4446 33.1112C57.8119 33.1112 57.2115 33.2452 56.6668 33.4834V32.2223C56.6668 23.0174 49.2048 15.5557 40.0001 15.5557H39.9999C30.7952 15.5557 23.3335 23.0174 23.3335 32.2223V33.4834C22.7886 33.2452 22.1881 33.1112 21.5557 33.1112C19.101 33.1112 17.1112 35.101 17.1112 37.5557C17.1112 40.0103 19.101 42.0001 21.5557 42.0001C22.1932 42.0001 22.7981 41.8634 23.3464 41.6217C23.5044 46.8646 26.0792 51.4994 29.9999 54.4448V61.1112L20.7252 63.7094C16.7319 64.8281 13.2552 67.3077 10.897 70.719L4.44458 80.0534V86.6668H75.5557V80.0534L69.103 70.719Z" fill="#F5CDD3"/>
<path fill-rule="evenodd" clip-rule="evenodd" d="M39.9999 57.7779C37.9448 57.7779 35.9777 57.4037 34.1599 56.7235C36.7453 58.375 39.8155 59.3335 43.1111 59.3335C45.5688 59.3335 47.8997 58.7973 49.9999 57.8424V54.4448C47.2144 56.5373 43.7522 57.7779 39.9999 57.7779Z" fill="#F48C9D"/>
<path d="M23.9132 38.2042C23.9698 37.9978 24.0003 37.7802 24.0003 37.5558C24.0003 36.2058 22.9058 35.1113 21.5558 35.1113C21.2183 35.1113 20.8967 35.1798 20.6043 35.3033" stroke="#00004D" stroke-width="2" stroke-linecap="round" stroke-linejoin="round"/>
<path d="M56.0871 38.2042C56.0304 37.9978 56.0002 37.7802 56.0002 37.5558C56.0002 36.2058 57.0946 35.1113 58.4446 35.1113C58.782 35.1113 59.1035 35.1798 59.3962 35.3033" stroke="#00004D" stroke-width="2" stroke-linecap="round" stroke-linejoin="round"/>
<path fill-rule="evenodd" clip-rule="evenodd" d="M44.4444 47.5576C44.4444 50.0123 42.4546 52.0021 39.9999 52.0021C37.5453 52.0021 35.5555 50.0123 35.5555 47.5576H44.4444Z" fill="#AE1328"/>
<path fill-rule="evenodd" clip-rule="evenodd" d="M42.4873 51.2412C41.846 50.6128 40.9687 50.2241 40 50.2241C39.0311 50.2241 38.1538 50.6128 37.5125 51.2412C38.2225 51.7215 39.0785 52.0019 40 52.0019C40.9213 52.0019 41.7776 51.7215 42.4873 51.2412Z" fill="#FB344F"/>
<path fill-rule="evenodd" clip-rule="evenodd" d="M47.3334 39.0953C47.898 39.0953 48.4211 39.2719 48.852 39.5715C49.0154 39.3028 49.1111 38.9886 49.1111 38.6508C49.1111 37.669 48.3151 36.873 47.3334 36.873C46.3516 36.873 45.5556 37.669 45.5556 38.6508C45.5556 38.9886 45.6514 39.3028 45.8147 39.5715C46.2456 39.2719 46.7687 39.0953 47.3334 39.0953Z" fill="#00004D"/>
<path fill-rule="evenodd" clip-rule="evenodd" d="M32.6667 39.0953C33.2313 39.0953 33.7545 39.2719 34.1853 39.5715C34.3487 39.3028 34.4445 38.9886 34.4445 38.6508C34.4445 37.669 33.6485 36.873 32.6667 36.873C31.6849 36.873 30.8889 37.669 30.8889 38.6508C30.8889 38.9886 30.9847 39.3028 31.148 39.5715C31.5789 39.2719 32.102 39.0953 32.6667 39.0953Z" fill="#00004D"/>
<path d="M39.5555 36.4443L42.6666 43.5554L38.6666 44.4443" stroke="#00004D" stroke-width="2" stroke-linecap="round" stroke-linejoin="round"/>
<path fill-rule="evenodd" clip-rule="evenodd" d="M57.7778 33.1663V32.2221C57.7778 28.8119 56.8158 25.627 55.1511 22.921C53.6082 20.4132 51.4593 18.3208 48.91 16.8408C46.2898 15.3194 43.2478 14.4443 40 14.4443C36.752 14.4443 33.7102 15.3194 31.09 16.8408C28.5407 18.3208 26.3918 20.4132 24.8489 22.921C23.1842 25.627 22.2222 28.8119 22.2222 32.2221V33.1663C23.1493 33.3063 23.982 33.7297 24.6285 34.3492C26.676 32.2941 28.3249 29.8421 29.4467 27.1161C32.5862 28.8137 36.1805 29.7777 40 29.7777C43.8196 29.7777 47.4138 28.8137 50.5533 27.1161C51.6749 29.8421 53.3242 32.2941 55.3716 34.3492C56.018 33.7297 56.8507 33.3063 57.7778 33.1663Z" fill="#00004D"/>
<path fill-rule="evenodd" clip-rule="evenodd" d="M75.5556 80.0534L69.1029 70.719C66.7449 67.3079 63.2682 64.8281 59.2747 63.7094L58.7833 63.5717L56.7958 59.7139C56.3065 58.7639 55.4914 58.0221 54.4996 57.6243L50 55.8192V61.1646C49.9994 61.1659 49.9991 61.1668 49.9985 61.1681L40.0569 71.1099C40.0378 71.1099 40.0191 71.1112 40 71.1112L30 61.1112V55.7637L25.5005 57.569C24.5087 57.9668 23.6936 58.7086 23.2042 59.6583L21.1833 63.581L20.7251 63.7094C16.7318 64.8281 13.2551 67.3079 10.8969 70.719L4.44446 80.0534V86.6668H75.5556V80.0534Z" fill="#DBDBE6"/>
<path d="M21.1834 63.5811L40.0001 74.4719L53.6203 66.6288" stroke="#00004D" stroke-width="2" stroke-linecap="round" stroke-linejoin="round"/>
<path fill-rule="evenodd" clip-rule="evenodd" d="M34.8889 83.3605C34.5207 83.3605 34.2222 83.0619 34.2222 82.6939V71.1445L35.5556 71.8992V82.6939C35.5556 83.0619 35.2571 83.3605 34.8889 83.3605Z" fill="#00004D"/>
<path fill-rule="evenodd" clip-rule="evenodd" d="M45.1111 78.6939C44.7429 78.6939 44.4445 78.3952 44.4445 78.0272V71.9123L45.7778 71.1445V78.0272C45.7778 78.3952 45.4793 78.6939 45.1111 78.6939Z" fill="#00004D"/>
<path d="M28.2222 59.3335L30 61.1113" stroke="#00004D" stroke-width="2" stroke-linecap="round" stroke-linejoin="round"/>
<path fill-rule="evenodd" clip-rule="evenodd" d="M43.9683 51.6607L42.2312 52.669C40.8516 53.4699 39.1485 53.4699 37.769 52.669L36.0316 51.6607C35.1103 51.1259 34.6981 50.0123 35.0492 49.0065L35.3474 48.1519C35.4721 47.795 35.8088 47.5556 36.1868 47.5556H43.8132C44.1912 47.5556 44.5279 47.795 44.6523 48.1519L44.9508 49.0065C45.3019 50.0123 44.8896 51.1259 43.9683 51.6607ZM55.1603 40.543L54.0103 44.2956C53.383 46.343 51.8105 47.9643 49.7834 48.6541L47.6452 49.3814L46.7901 47.6954C46.0328 46.2023 44.5008 45.2614 42.8263 45.2614H40.0001H37.1736C35.4994 45.2614 33.9672 46.2023 33.2099 47.6954L32.3548 49.3814L30.2165 48.6541C28.1894 47.9643 26.617 46.343 25.9896 44.2956L24.8396 40.543C24.4214 41.0025 23.9105 41.3756 23.3334 41.6281V49.1047C23.3334 54.3783 26.4414 59.1561 31.2619 61.2939L36.397 63.5705C38.6912 64.5879 41.3088 64.5879 43.603 63.5705L48.7379 61.2939C53.5585 59.1561 56.6668 54.3783 56.6668 49.1047V41.6281C56.0894 41.3756 55.5785 41.0025 55.1603 40.543Z" fill="#00004D"/>
</g>
</svg>
