<svg width="80" height="80" viewBox="0 0 80 80" fill="none" xmlns="http://www.w3.org/2000/svg">
<rect width="80" height="80" rx="20" fill="#F5F5F8"/>
<mask id="mask0_2427_17445" style="mask-type:luminance" maskUnits="userSpaceOnUse" x="0" y="0" width="80" height="80">
<rect width="80" height="80" rx="20" fill="white"/>
</mask>
<g mask="url(#mask0_2427_17445)">
<path fill-rule="evenodd" clip-rule="evenodd" d="M69.103 70.719C66.7448 67.3077 63.2681 64.8281 59.2748 63.7094L49.9999 61.1112V54.4448C53.9208 51.4994 56.4957 46.8646 56.6539 41.6217C57.2019 41.8632 57.8068 42.0001 58.4446 42.0001C60.899 42.0001 62.889 40.0103 62.889 37.5557C62.889 35.101 60.899 33.1112 58.4446 33.1112C57.8119 33.1112 57.2115 33.2452 56.6668 33.4834V32.2223C56.6668 23.0174 49.2048 15.5557 40.0001 15.5557H39.9999C30.7952 15.5557 23.3335 23.0174 23.3335 32.2223V33.4834C22.7886 33.2452 22.1881 33.1112 21.5557 33.1112C19.101 33.1112 17.1112 35.101 17.1112 37.5557C17.1112 40.0103 19.101 42.0001 21.5557 42.0001C22.1932 42.0001 22.7981 41.8634 23.3464 41.6217C23.5044 46.8646 26.0792 51.4994 29.9999 54.4448V61.1112L20.7252 63.7094C16.7319 64.8281 13.2552 67.3077 10.897 70.719L4.44458 80.0534V86.6668H75.5557V80.0534L69.103 70.719Z" fill="#B5683C"/>
<path fill-rule="evenodd" clip-rule="evenodd" d="M39.9999 57.7779C37.9448 57.7779 35.9777 57.4037 34.1599 56.7235C36.7453 58.375 39.8155 59.3335 43.111 59.3335C45.5688 59.3335 47.8997 58.7973 49.9999 57.8424V54.4448C47.2144 56.5373 43.7522 57.7779 39.9999 57.7779Z" fill="#A3420B"/>
<path d="M23.9132 38.2042C23.9698 37.9978 24.0003 37.7802 24.0003 37.5558C24.0003 36.2058 22.9058 35.1113 21.5558 35.1113C21.2183 35.1113 20.8967 35.1798 20.6043 35.3033" stroke="#00004D" stroke-width="2" stroke-linecap="round" stroke-linejoin="round"/>
<path d="M56.0871 38.2042C56.0304 37.9978 56.0002 37.7802 56.0002 37.5558C56.0002 36.2058 57.0946 35.1113 58.4446 35.1113C58.782 35.1113 59.1035 35.1798 59.3962 35.3033" stroke="#00004D" stroke-width="2" stroke-linecap="round" stroke-linejoin="round"/>
<path fill-rule="evenodd" clip-rule="evenodd" d="M44.4444 47.5576C44.4444 50.0123 42.4546 52.0021 39.9999 52.0021C37.5453 52.0021 35.5555 50.0123 35.5555 47.5576H44.4444Z" fill="#AE1328"/>
<path fill-rule="evenodd" clip-rule="evenodd" d="M42.4874 51.2412C41.846 50.6128 40.9687 50.2241 40 50.2241C39.0311 50.2241 38.1538 50.6128 37.5125 51.2412C38.2225 51.7215 39.0785 52.0019 40 52.0019C40.9214 52.0019 41.7776 51.7215 42.4874 51.2412Z" fill="#FB344F"/>
<path fill-rule="evenodd" clip-rule="evenodd" d="M49.1112 38.2221C49.1112 39.2039 48.3152 39.9999 47.3334 39.9999C46.3517 39.9999 45.5557 39.2039 45.5557 38.2221C45.5557 37.2403 46.3517 36.4443 47.3334 36.4443C48.3152 36.4443 49.1112 37.2403 49.1112 38.2221Z" fill="#00004D"/>
<path fill-rule="evenodd" clip-rule="evenodd" d="M34.4444 38.2221C34.4444 39.2039 33.6484 39.9999 32.6667 39.9999C31.6849 39.9999 30.8889 39.2039 30.8889 38.2221C30.8889 37.2403 31.6849 36.4443 32.6667 36.4443C33.6484 36.4443 34.4444 37.2403 34.4444 38.2221Z" fill="#00004D"/>
<path d="M39.9652 36.4443L42.1343 42.0221C42.5876 43.1877 41.7278 44.4443 40.4774 44.4443H39.0763" stroke="#00004D" stroke-width="2" stroke-linecap="round" stroke-linejoin="round"/>
<path fill-rule="evenodd" clip-rule="evenodd" d="M40 6.44434C25.2724 6.44434 13.3333 18.3837 13.3333 33.111C13.3333 44.3019 20.2276 53.8812 30 57.8374V54.4446C26.0791 51.4994 23.5044 46.8646 23.3464 41.6214C22.7982 41.8632 22.1931 41.9999 21.5556 41.9999C19.1009 41.9999 17.1111 40.0101 17.1111 37.5554C17.1111 35.101 19.1009 33.111 21.5556 33.111C21.7929 33.111 22.024 33.1357 22.2513 33.1719C22.5542 33.2197 22.846 33.2992 23.1251 33.4043C23.166 33.4201 23.2076 33.4343 23.2478 33.4508C23.7638 33.6632 24.2316 33.9688 24.6284 34.3492C26.6758 32.2941 28.3251 29.8421 29.4467 27.1161C32.5862 28.8137 36.1807 29.7777 40 29.7777C43.8193 29.7777 47.4138 28.8137 50.5533 27.1161C51.6749 29.8421 53.3242 32.2941 55.3716 34.3492C55.7684 33.9688 56.2362 33.663 56.7527 33.4508C56.7924 33.4343 56.8336 33.4203 56.8742 33.4048C57.1536 33.2994 57.4458 33.2197 57.7489 33.1719C57.9762 33.1357 58.2071 33.111 58.4445 33.111C60.8989 33.111 62.8889 35.101 62.8889 37.5554C62.8889 40.0101 60.8989 41.9999 58.4445 41.9999C57.8069 41.9999 57.2018 41.8632 56.6536 41.6214C56.4956 46.8646 53.9207 51.4994 50 54.4446V57.8374C59.7722 53.8812 66.6667 44.3019 66.6667 33.111C66.6667 18.3837 54.7273 6.44434 40 6.44434Z" fill="#00004D"/>
<path fill-rule="evenodd" clip-rule="evenodd" d="M75.5556 80.0539L69.1031 70.7195C66.7449 67.3084 63.2682 64.8286 59.2747 63.7099L51.1111 61.4228V56.6673C51.1111 56.0535 50.6138 55.5562 50 55.5562V56.6675C47.2144 58.7599 43.7522 60.0006 40 60.0006C36.2478 60.0006 32.7856 58.7599 30 56.6675V55.5562C29.3862 55.5562 28.8889 56.0535 28.8889 56.6673V61.4228L20.7253 63.7099C16.7318 64.8286 13.2551 67.3084 10.8969 70.7195L4.44444 80.0537V86.6673H75.5556V80.0539Z" fill="#C2E3A1"/>
<path d="M45.8796 64.6004C44.0509 65.2899 42.0696 65.667 40 65.667C35.7311 65.667 31.8369 64.0619 28.8882 61.4224" stroke="#00004D" stroke-width="2" stroke-linecap="round" stroke-linejoin="round"/>
</g>
</svg>
