<svg width="80" height="80" viewBox="0 0 80 80" fill="none" xmlns="http://www.w3.org/2000/svg">
<rect width="80" height="80" rx="20" fill="#F5F5F8"/>
<mask id="mask0_2401_15203" style="mask-type:luminance" maskUnits="userSpaceOnUse" x="0" y="0" width="80" height="80">
<rect width="80" height="80" rx="20" fill="white"/>
</mask>
<g mask="url(#mask0_2401_15203)">
<path fill-rule="evenodd" clip-rule="evenodd" d="M69.103 70.719C66.7448 67.3077 63.2681 64.8281 59.2748 63.7094L49.9999 61.1112V54.4448C53.9208 51.4994 56.4957 46.8646 56.6539 41.6217C57.2019 41.8632 57.8068 42.0001 58.4446 42.0001C60.899 42.0001 62.889 40.0103 62.889 37.5557C62.889 35.101 60.899 33.1112 58.4446 33.1112C57.8119 33.1112 57.2115 33.2452 56.6668 33.4834V32.2223C56.6668 23.0174 49.2048 15.5557 40.0001 15.5557H39.9999C30.7952 15.5557 23.3335 23.0174 23.3335 32.2223V33.4834C22.7886 33.2452 22.1881 33.1112 21.5557 33.1112C19.101 33.1112 17.1112 35.101 17.1112 37.5557C17.1112 40.0103 19.101 42.0001 21.5557 42.0001C22.1932 42.0001 22.7981 41.8634 23.3464 41.6217C23.5044 46.8646 26.0792 51.4994 29.9999 54.4448V61.1112L20.7252 63.7094C16.7319 64.8281 13.2552 67.3077 10.897 70.719L4.44458 80.0534V86.6668H75.5557V80.0534L69.103 70.719Z" fill="#E9ADA1"/>
<path fill-rule="evenodd" clip-rule="evenodd" d="M39.9999 57.7779C37.9448 57.7779 35.9777 57.4037 34.1599 56.7235C36.7453 58.375 39.8155 59.3335 43.111 59.3335C45.5688 59.3335 47.8997 58.7973 49.9999 57.8424V54.4448C47.2144 56.5373 43.7522 57.7779 39.9999 57.7779Z" fill="#DB8B79"/>
<path d="M23.9132 38.2042C23.9698 37.9978 24.0003 37.7802 24.0003 37.5558C24.0003 36.2058 22.9058 35.1113 21.5558 35.1113C21.2183 35.1113 20.8967 35.1798 20.6043 35.3033" stroke="#00004D" stroke-width="2" stroke-linecap="round" stroke-linejoin="round"/>
<path d="M56.0871 38.2042C56.0304 37.9978 56.0002 37.7802 56.0002 37.5558C56.0002 36.2058 57.0946 35.1113 58.4446 35.1113C58.782 35.1113 59.1035 35.1798 59.3962 35.3033" stroke="#00004D" stroke-width="2" stroke-linecap="round" stroke-linejoin="round"/>
<path fill-rule="evenodd" clip-rule="evenodd" d="M44.4444 47.5576C44.4444 50.0123 42.4546 52.0021 39.9999 52.0021C37.5453 52.0021 35.5555 50.0123 35.5555 47.5576H44.4444Z" fill="#AE1328"/>
<path fill-rule="evenodd" clip-rule="evenodd" d="M42.4874 51.2412C41.846 50.6128 40.9687 50.2241 40 50.2241C39.0311 50.2241 38.1538 50.6128 37.5125 51.2412C38.2225 51.7215 39.0785 52.0019 40 52.0019C40.9214 52.0019 41.7776 51.7215 42.4874 51.2412Z" fill="#FB344F"/>
<path fill-rule="evenodd" clip-rule="evenodd" d="M49.1112 38.2221C49.1112 39.2039 48.3152 39.9999 47.3334 39.9999C46.3517 39.9999 45.5557 39.2039 45.5557 38.2221C45.5557 37.2403 46.3517 36.4443 47.3334 36.4443C48.3152 36.4443 49.1112 37.2403 49.1112 38.2221Z" fill="#00004D"/>
<path fill-rule="evenodd" clip-rule="evenodd" d="M34.4444 38.2221C34.4444 39.2039 33.6484 39.9999 32.6667 39.9999C31.6849 39.9999 30.8889 39.2039 30.8889 38.2221C30.8889 37.2403 31.6849 36.4443 32.6667 36.4443C33.6484 36.4443 34.4444 37.2403 34.4444 38.2221Z" fill="#00004D"/>
<path d="M39.9652 36.4443L42.1343 42.0221C42.5876 43.1877 41.7278 44.4443 40.4774 44.4443H39.0763" stroke="#00004D" stroke-width="2" stroke-linecap="round" stroke-linejoin="round"/>
<path fill-rule="evenodd" clip-rule="evenodd" d="M58.1426 33.1263C56.8132 33.2159 55.6466 33.8881 54.8926 34.8921L54.1717 31.2877H46.2119L44.0268 24.8843V31.2877H25.8284L25.1075 34.8921C24.3535 33.8881 23.1868 33.2159 21.8575 33.1263V33.1223L22.4406 29.431C22.8126 27.075 23.6477 24.8737 24.849 22.921C26.3917 20.4134 28.5406 18.321 31.0901 16.841C33.7104 15.3197 36.7519 14.4443 39.9999 14.4443C43.2479 14.4443 46.2897 15.3197 48.9099 16.841C51.4595 18.321 53.6084 20.4134 55.151 22.921C56.3521 24.8737 57.1875 27.075 57.5595 29.431L58.1426 33.1223V33.1263ZM30 54.439C26.0829 51.493 23.5044 46.8628 23.3462 41.6214C22.798 41.8632 22.1931 41.9999 21.5556 41.9999C21.1827 41.9999 20.8227 41.9492 20.4769 41.8625L17.7778 58.9503H30V54.439ZM58.4444 42C57.8069 42 57.2018 41.8633 56.6536 41.6215C56.4956 46.8629 53.9171 51.4931 50 54.4389V58.9502H62.2222L59.5231 41.8626C59.1771 41.9491 58.8173 42 58.4444 42Z" fill="#00004D"/>
<path fill-rule="evenodd" clip-rule="evenodd" d="M75.5556 80.0534L69.1029 70.719C66.7449 67.3079 63.2682 64.8281 59.2747 63.7094L58.7833 63.5717L56.7958 59.7139C56.3064 58.7639 55.4913 58.0221 54.4996 57.6243L50 55.8192V61.1646C49.9993 61.1659 49.9991 61.1668 49.9984 61.1681L40.0569 71.1099C40.0378 71.1099 40.0191 71.1112 40 71.1112L30 61.1112V55.7637L25.5004 57.569C24.5087 57.9668 23.6936 58.7086 23.2042 59.6583L21.1833 63.581L20.7251 63.7094C16.7318 64.8281 13.2551 67.3079 10.8969 70.719L4.44444 80.0534V86.6668H75.5556V80.0534Z" fill="#E5B1FF"/>
<path d="M21.1834 63.5811L40 74.4719L53.6203 66.6288" stroke="#00004D" stroke-width="2" stroke-linecap="round" stroke-linejoin="round"/>
<path fill-rule="evenodd" clip-rule="evenodd" d="M34.8889 83.3605C34.5207 83.3605 34.2222 83.0619 34.2222 82.6939V71.1445L35.5556 71.8992V82.6939C35.5556 83.0619 35.2571 83.3605 34.8889 83.3605Z" fill="#00004D"/>
<path fill-rule="evenodd" clip-rule="evenodd" d="M45.1111 78.6939C44.7429 78.6939 44.4444 78.3952 44.4444 78.0272V71.9123L45.7778 71.1445V78.0272C45.7778 78.3952 45.4793 78.6939 45.1111 78.6939Z" fill="#00004D"/>
<path d="M28.2222 59.3335L30 61.1113" stroke="#00004D" stroke-width="2" stroke-linecap="round" stroke-linejoin="round"/>
</g>
</svg>
