<svg width="80" height="80" viewBox="0 0 80 80" fill="none" xmlns="http://www.w3.org/2000/svg">
<rect width="80" height="80" rx="20" fill="#F5F5F8"/>
<mask id="mask0_2401_15447" style="mask-type:luminance" maskUnits="userSpaceOnUse" x="0" y="0" width="80" height="80">
<rect width="80" height="80" rx="20" fill="white"/>
</mask>
<g mask="url(#mask0_2401_15447)">
<path fill-rule="evenodd" clip-rule="evenodd" d="M69.103 70.719C66.7448 67.3077 63.2681 64.8281 59.2748 63.7094L49.9999 61.1112V54.4448C53.9208 51.4994 56.4957 46.8646 56.6539 41.6217C57.2019 41.8632 57.8068 42.0001 58.4446 42.0001C60.899 42.0001 62.889 40.0103 62.889 37.5557C62.889 35.101 60.899 33.1112 58.4446 33.1112C57.8119 33.1112 57.2115 33.2452 56.6668 33.4834V32.2223C56.6668 23.0174 49.2048 15.5557 40.0001 15.5557H39.9999C30.7952 15.5557 23.3335 23.0174 23.3335 32.2223V33.4834C22.7886 33.2452 22.1881 33.1112 21.5557 33.1112C19.101 33.1112 17.1112 35.101 17.1112 37.5557C17.1112 40.0103 19.101 42.0001 21.5557 42.0001C22.1932 42.0001 22.7981 41.8634 23.3464 41.6217C23.5044 46.8646 26.0792 51.4994 29.9999 54.4448V61.1112L20.7252 63.7094C16.7319 64.8281 13.2552 67.3077 10.897 70.719L4.44458 80.0534V86.6668H75.5557V80.0534L69.103 70.719Z" fill="#FFCF83"/>
<path fill-rule="evenodd" clip-rule="evenodd" d="M39.9999 57.7779C37.9448 57.7779 35.9777 57.4037 34.1599 56.7235C36.7453 58.375 39.8155 59.3335 43.1111 59.3335C45.5688 59.3335 47.8997 58.7973 49.9999 57.8424V54.4448C47.2144 56.5373 43.7522 57.7779 39.9999 57.7779Z" fill="#F7A74F"/>
<path d="M23.9132 38.2042C23.9698 37.9978 24.0003 37.7802 24.0003 37.5558C24.0003 36.2058 22.9058 35.1113 21.5558 35.1113C21.2183 35.1113 20.8967 35.1798 20.6043 35.3033" stroke="#00004D" stroke-width="2" stroke-linecap="round" stroke-linejoin="round"/>
<path d="M56.0871 38.2042C56.0304 37.9978 56.0002 37.7802 56.0002 37.5558C56.0002 36.2058 57.0947 35.1113 58.4447 35.1113C58.782 35.1113 59.1035 35.1798 59.3962 35.3033" stroke="#00004D" stroke-width="2" stroke-linecap="round" stroke-linejoin="round"/>
<path fill-rule="evenodd" clip-rule="evenodd" d="M45.5555 47.5576C45.5555 50.6261 43.0682 53.1132 40 53.1132C36.9317 53.1132 34.4444 50.6261 34.4444 47.5576H45.5555Z" fill="#AE1328"/>
<path fill-rule="evenodd" clip-rule="evenodd" d="M43.1091 52.1624C42.3076 51.3771 41.2109 50.8911 40 50.8911C38.7891 50.8911 37.6925 51.3771 36.8909 52.1624C37.7782 52.7629 38.848 53.1133 40 53.1133C41.1518 53.1133 42.222 52.7629 43.1091 52.1624Z" fill="#FB344F"/>
<path fill-rule="evenodd" clip-rule="evenodd" d="M43.3333 49.3354H36.6666C36.0528 49.3354 35.5555 48.8381 35.5555 48.2243V47.5576H44.4444V48.2243C44.4444 48.8381 43.9471 49.3354 43.3333 49.3354Z" fill="white"/>
<path fill-rule="evenodd" clip-rule="evenodd" d="M47.3334 39.0953C47.898 39.0953 48.4211 39.2719 48.852 39.5715C49.0154 39.3028 49.1111 38.9886 49.1111 38.6508C49.1111 37.669 48.3151 36.873 47.3334 36.873C46.3516 36.873 45.5556 37.669 45.5556 38.6508C45.5556 38.9886 45.6514 39.3028 45.8147 39.5715C46.2456 39.2719 46.7687 39.0953 47.3334 39.0953Z" fill="#00004D"/>
<path fill-rule="evenodd" clip-rule="evenodd" d="M32.6667 39.0953C33.2314 39.0953 33.7545 39.2719 34.1854 39.5715C34.3487 39.3028 34.4445 38.9886 34.4445 38.6508C34.4445 37.669 33.6485 36.873 32.6667 36.873C31.6849 36.873 30.8889 37.669 30.8889 38.6508C30.8889 38.9886 30.9847 39.3028 31.148 39.5715C31.5789 39.2719 32.102 39.0953 32.6667 39.0953Z" fill="#00004D"/>
<path d="M39.9652 36.4443L42.1343 42.0221C42.5876 43.1877 41.7278 44.4443 40.4774 44.4443H39.0763" stroke="#00004D" stroke-width="2" stroke-linecap="round" stroke-linejoin="round"/>
<path fill-rule="evenodd" clip-rule="evenodd" d="M21.1111 32.2224C21.1111 21.7904 29.568 13.3335 40 13.3335C50.432 13.3335 58.8889 21.7904 58.8889 32.2224C58.8889 32.5279 58.8789 32.8308 58.8636 33.1326C58.7253 33.1195 58.586 33.1113 58.4445 33.1113C57.196 33.1113 56.0696 33.6277 55.2622 34.4566C51.0669 32.5497 47.566 29.3828 45.2531 25.4313C39.8576 30.5895 32.7322 33.9515 24.8353 34.5637C24.0227 33.6733 22.8562 33.1113 21.5556 33.1113C21.4142 33.1113 21.2747 33.1195 21.1369 33.1326C21.1216 32.8308 21.1111 32.5279 21.1111 32.2224ZM21.5556 42.0001C22.1912 42.0001 22.7945 41.8645 23.3412 41.6241C23.4961 46.7436 25.9627 51.2794 29.7294 54.2321C27.8152 57.5799 24.2123 59.8376 20.0798 59.8376C13.9434 59.8376 8.96872 54.863 8.96872 48.7265C8.96872 43.6101 12.4281 39.3043 17.1345 38.013C17.3634 40.2528 19.2552 42.0001 21.5556 42.0001Z" fill="#00004D"/>
<path fill-rule="evenodd" clip-rule="evenodd" d="M75.5556 80.0535L69.1029 70.7191C66.7449 67.308 63.2682 64.8282 59.2747 63.7095L50 61.1113C50 66.6342 45.5229 71.1113 40 71.1113C34.4771 71.1113 30 66.6342 30 61.1113L20.7251 63.7095C16.7318 64.8282 13.2551 67.308 10.8969 70.7191L4.44446 80.0535V86.6669H75.5556V80.0535Z" fill="#FA5051"/>
</g>
</svg>
