<svg width="80" height="80" viewBox="0 0 80 80" fill="none" xmlns="http://www.w3.org/2000/svg">
<rect width="80" height="80" rx="20" fill="#F5F5F8"/>
<mask id="mask0_2427_13012" style="mask-type:luminance" maskUnits="userSpaceOnUse" x="0" y="0" width="80" height="80">
<rect width="80" height="80" rx="20" fill="white"/>
</mask>
<g mask="url(#mask0_2427_13012)">
<path fill-rule="evenodd" clip-rule="evenodd" d="M69.103 70.719C66.7448 67.3077 63.2681 64.8281 59.2748 63.7094L49.9999 61.1112V54.4448C53.9208 51.4994 56.4957 46.8646 56.6539 41.6217C57.2019 41.8632 57.8068 42.0001 58.4446 42.0001C60.899 42.0001 62.889 40.0103 62.889 37.5557C62.889 35.101 60.899 33.1112 58.4446 33.1112C57.8119 33.1112 57.2115 33.2452 56.6668 33.4834V32.2223C56.6668 23.0174 49.2048 15.5557 40.0001 15.5557H39.9999C30.7952 15.5557 23.3335 23.0174 23.3335 32.2223V33.4834C22.7886 33.2452 22.1881 33.1112 21.5557 33.1112C19.101 33.1112 17.1112 35.101 17.1112 37.5557C17.1112 40.0103 19.101 42.0001 21.5557 42.0001C22.1932 42.0001 22.7981 41.8634 23.3464 41.6217C23.5044 46.8646 26.0792 51.4994 29.9999 54.4448V61.1112L20.7252 63.7094C16.7319 64.8281 13.2552 67.3077 10.897 70.719L4.44458 80.0534V86.6668H75.5557V80.0534L69.103 70.719Z" fill="#E9ADA1"/>
<path fill-rule="evenodd" clip-rule="evenodd" d="M39.9999 57.7779C37.9448 57.7779 35.9777 57.4037 34.1599 56.7235C36.7453 58.375 39.8155 59.3335 43.1111 59.3335C45.5688 59.3335 47.8997 58.7973 49.9999 57.8424V54.4448C47.2144 56.5373 43.7522 57.7779 39.9999 57.7779Z" fill="#DB8B79"/>
<path d="M23.9132 38.2042C23.9698 37.9978 24.0003 37.7802 24.0003 37.5558C24.0003 36.2058 22.9058 35.1113 21.5558 35.1113C21.2183 35.1113 20.8967 35.1798 20.6043 35.3033" stroke="#00004D" stroke-width="2" stroke-linecap="round" stroke-linejoin="round"/>
<path d="M56.0871 38.2042C56.0304 37.9978 56.0002 37.7802 56.0002 37.5558C56.0002 36.2058 57.0947 35.1113 58.4447 35.1113C58.782 35.1113 59.1035 35.1798 59.3962 35.3033" stroke="#00004D" stroke-width="2" stroke-linecap="round" stroke-linejoin="round"/>
<path d="M42.791 48.4468C42.2003 49.3808 41.1583 50.0008 39.9716 50.0008C38.8221 50.0008 37.8083 49.4188 37.209 48.5332" stroke="#00004D" stroke-width="2" stroke-linecap="round" stroke-linejoin="round"/>
<path fill-rule="evenodd" clip-rule="evenodd" d="M49.1112 38.2221C49.1112 39.2039 48.3152 39.9999 47.3334 39.9999C46.3517 39.9999 45.5557 39.2039 45.5557 38.2221C45.5557 37.2403 46.3517 36.4443 47.3334 36.4443C48.3152 36.4443 49.1112 37.2403 49.1112 38.2221Z" fill="#00004D"/>
<path fill-rule="evenodd" clip-rule="evenodd" d="M34.4444 38.2221C34.4444 39.2039 33.6484 39.9999 32.6667 39.9999C31.6849 39.9999 30.8889 39.2039 30.8889 38.2221C30.8889 37.2403 31.6849 36.4443 32.6667 36.4443C33.6484 36.4443 34.4444 37.2403 34.4444 38.2221Z" fill="#00004D"/>
<path d="M39.9652 36.4443L42.1343 42.0221C42.5876 43.1877 41.7278 44.4443 40.4774 44.4443H39.0763" stroke="#00004D" stroke-width="2" stroke-linecap="round" stroke-linejoin="round"/>
<path fill-rule="evenodd" clip-rule="evenodd" d="M48.8218 15.5201C48.8643 15.1672 48.889 14.809 48.889 14.4446C48.889 9.53544 44.9094 5.55566 40.0001 5.55566C35.0907 5.55566 31.1112 9.53544 31.1112 14.4446C31.1112 14.809 31.1356 15.1672 31.1783 15.5201C25.1918 18.6888 21.1112 24.9777 21.1112 32.2223C21.1112 32.5279 21.1212 32.8308 21.1365 33.1326C21.2747 33.1194 21.4141 33.1112 21.5556 33.1112C22.8041 33.1112 23.9305 33.6277 24.7378 34.4566C28.9332 32.5497 32.4341 29.3828 34.747 25.4314C40.1423 30.5897 47.2678 33.9514 55.1647 34.5637C55.9774 33.6732 57.1438 33.1112 58.4445 33.1112C58.5858 33.1112 58.7252 33.1194 58.8632 33.1326C58.8785 32.8308 58.889 32.5279 58.889 32.2223C58.889 24.9777 54.8081 18.6888 48.8218 15.5201Z" fill="#00004D"/>
<path fill-rule="evenodd" clip-rule="evenodd" d="M75.5556 80.0534L69.1029 70.719C66.7449 67.3079 63.2682 64.8281 59.2747 63.7094L58.7833 63.5717L56.7958 59.7139C56.3065 58.7639 55.4914 58.0221 54.4996 57.6243L50 55.8192V61.1646C49.9994 61.1659 49.9991 61.1668 49.9985 61.1681L40.0569 71.1099C40.0378 71.1099 40.0191 71.1112 40 71.1112L30 61.1112V55.7637L25.5005 57.569C24.5087 57.9668 23.6936 58.7086 23.2042 59.6583L21.1833 63.581L20.7251 63.7094C16.7318 64.8281 13.2551 67.3079 10.8969 70.719L4.44446 80.0534V86.6668H75.5556V80.0534Z" fill="#FFDC78"/>
<path d="M21.1834 63.5811L40 74.4719L53.6203 66.6288" stroke="#00004D" stroke-width="2" stroke-linecap="round" stroke-linejoin="round"/>
<path fill-rule="evenodd" clip-rule="evenodd" d="M34.8889 83.3605C34.5207 83.3605 34.2222 83.0619 34.2222 82.6939V71.1445L35.5556 71.8992V82.6939C35.5556 83.0619 35.2571 83.3605 34.8889 83.3605Z" fill="#00004D"/>
<path fill-rule="evenodd" clip-rule="evenodd" d="M45.1111 78.6939C44.7429 78.6939 44.4445 78.3952 44.4445 78.0272V71.9123L45.7778 71.1445V78.0272C45.7778 78.3952 45.4793 78.6939 45.1111 78.6939Z" fill="#00004D"/>
<path d="M28.2222 59.3335L30 61.1113" stroke="#00004D" stroke-width="2" stroke-linecap="round" stroke-linejoin="round"/>
<path fill-rule="evenodd" clip-rule="evenodd" d="M50.6732 33.7778H44.0066C43.0326 33.7778 42.207 34.4054 41.907 35.2774C41.6223 34.9067 41.1766 34.6667 40.6732 34.6667H39.2223C38.7192 34.6667 38.273 34.9067 37.9888 35.2774C37.6883 34.4054 36.863 33.7778 35.889 33.7778H29.2223C27.995 33.7778 27.0001 34.7729 27.0001 36.0001V37.5556C27.0001 40.6241 29.4875 43.1112 32.5557 43.1112C35.6239 43.1112 38.1112 40.6241 38.1112 37.5556C38.1112 36.6965 38.8077 36.0001 39.6668 36.0001H40.2288C41.0879 36.0001 41.7843 36.6965 41.7843 37.5556C41.7843 40.6241 44.2715 43.1112 47.3399 43.1112C50.4081 43.1112 52.8955 40.6241 52.8955 37.5556V36.0001C52.8955 34.7729 51.9003 33.7778 50.6732 33.7778Z" fill="#000066"/>
</g>
</svg>
