<svg width="80" height="80" viewBox="0 0 80 80" fill="none" xmlns="http://www.w3.org/2000/svg">
<rect width="80" height="80" rx="20" fill="#F5F5F8"/>
<mask id="mask0_2401_14028" style="mask-type:luminance" maskUnits="userSpaceOnUse" x="0" y="0" width="80" height="80">
<rect width="80" height="80" rx="20" fill="white"/>
</mask>
<g mask="url(#mask0_2401_14028)">
<path fill-rule="evenodd" clip-rule="evenodd" d="M69.103 70.719C66.7448 67.3077 63.2681 64.8281 59.2748 63.7094L49.9999 61.1112V54.4448C53.9208 51.4994 56.4957 46.8646 56.6539 41.6217C57.2019 41.8632 57.8068 42.0001 58.4446 42.0001C60.899 42.0001 62.889 40.0103 62.889 37.5557C62.889 35.101 60.899 33.1112 58.4446 33.1112C57.8119 33.1112 57.2115 33.2452 56.6668 33.4834V32.2223C56.6668 23.0174 49.2048 15.5557 40.0001 15.5557H39.9999C30.7952 15.5557 23.3335 23.0174 23.3335 32.2223V33.4834C22.7886 33.2452 22.1881 33.1112 21.5557 33.1112C19.101 33.1112 17.1112 35.101 17.1112 37.5557C17.1112 40.0103 19.101 42.0001 21.5557 42.0001C22.1932 42.0001 22.7981 41.8634 23.3464 41.6217C23.5044 46.8646 26.0792 51.4994 29.9999 54.4448V61.1112L20.7252 63.7094C16.7319 64.8281 13.2552 67.3077 10.897 70.719L4.44458 80.0534V86.6668H75.5557V80.0534L69.103 70.719Z" fill="#E9ADA1"/>
<path fill-rule="evenodd" clip-rule="evenodd" d="M39.9999 57.7779C37.9448 57.7779 35.9777 57.4037 34.1599 56.7235C36.7452 58.375 39.8155 59.3335 43.111 59.3335C45.5688 59.3335 47.8997 58.7973 49.9999 57.8424V54.4448C47.2144 56.5373 43.7521 57.7779 39.9999 57.7779Z" fill="#DB8B79"/>
<path d="M23.9131 38.2042C23.9698 37.9978 24.0002 37.7802 24.0002 37.5558C24.0002 36.2058 22.9058 35.1113 21.5558 35.1113C21.2182 35.1113 20.8967 35.1798 20.6042 35.3033" stroke="#00004D" stroke-width="2" stroke-linecap="round" stroke-linejoin="round"/>
<path d="M56.0871 38.2042C56.0304 37.9978 56.0002 37.7802 56.0002 37.5558C56.0002 36.2058 57.0946 35.1113 58.4446 35.1113C58.782 35.1113 59.1035 35.1798 59.3962 35.3033" stroke="#00004D" stroke-width="2" stroke-linecap="round" stroke-linejoin="round"/>
<path d="M42.7909 48.4468C42.2003 49.3808 41.1583 50.0008 39.9716 50.0008C38.822 50.0008 37.8083 49.4188 37.2089 48.5332" stroke="#00004D" stroke-width="2" stroke-linecap="round" stroke-linejoin="round"/>
<path fill-rule="evenodd" clip-rule="evenodd" d="M49.1112 38.2221C49.1112 39.2039 48.3152 39.9999 47.3334 39.9999C46.3517 39.9999 45.5557 39.2039 45.5557 38.2221C45.5557 37.2403 46.3517 36.4443 47.3334 36.4443C48.3152 36.4443 49.1112 37.2403 49.1112 38.2221Z" fill="#00004D"/>
<path fill-rule="evenodd" clip-rule="evenodd" d="M34.4445 38.2221C34.4445 39.2039 33.6485 39.9999 32.6667 39.9999C31.6849 39.9999 30.8889 39.2039 30.8889 38.2221C30.8889 37.2403 31.6849 36.4443 32.6667 36.4443C33.6485 36.4443 34.4445 37.2403 34.4445 38.2221Z" fill="#00004D"/>
<path d="M40 36.4443L42.2222 43.9999L39.1111 44.4443" stroke="#00004D" stroke-width="2" stroke-linecap="round" stroke-linejoin="round"/>
<path fill-rule="evenodd" clip-rule="evenodd" d="M55.5556 34.1821C56.1727 33.653 56.9365 33.2932 57.7778 33.1663V32.2221C57.7778 28.8119 56.816 25.627 55.1511 22.921C53.6082 20.4132 51.4593 18.3208 48.91 16.8408C46.2898 15.3194 43.248 14.4443 40 14.4443C36.7522 14.4443 33.7102 15.3194 31.09 16.8408C28.5407 18.3208 26.3918 20.4132 24.8489 22.921C23.1842 25.627 22.2222 28.8119 22.2222 32.2221V33.1663C23.0636 33.2932 23.8273 33.653 24.4445 34.1821V32.2221C24.4445 26.2366 27.8271 21.0437 32.7831 18.4426C34.7247 20.1046 37.244 21.111 40 21.111C42.756 21.111 45.2753 20.1046 47.2169 18.4428C52.1729 21.0439 55.5556 26.2366 55.5556 32.2221V34.1821Z" fill="#00004D"/>
<path fill-rule="evenodd" clip-rule="evenodd" d="M75.5556 80.0534L69.1029 70.719C66.7449 67.3079 63.2682 64.8281 59.2747 63.7094L58.7833 63.5717L56.7958 59.7139C56.3065 58.7639 55.4914 58.0221 54.4996 57.6243L50 55.8192V61.1646C49.9994 61.1659 49.9991 61.1668 49.9985 61.1681L40.0569 71.1099C40.0378 71.1099 40.0191 71.1112 40 71.1112L30 61.1112V55.7637L25.5005 57.569C24.5087 57.9668 23.6936 58.7086 23.2042 59.6583L21.1833 63.581L20.7251 63.7094C16.7318 64.8281 13.2551 67.3079 10.8969 70.719L4.44446 80.0534V86.6668H75.5556V80.0534Z" fill="#6A2405"/>
<path d="M21.1834 63.5811L40.0001 74.4719L53.6203 66.6288" stroke="#00004D" stroke-width="2" stroke-linecap="round" stroke-linejoin="round"/>
<path fill-rule="evenodd" clip-rule="evenodd" d="M34.8889 83.3605C34.5207 83.3605 34.2222 83.0619 34.2222 82.6939V71.1445L35.5556 71.8992V82.6939C35.5556 83.0619 35.2571 83.3605 34.8889 83.3605Z" fill="#00004D"/>
<path fill-rule="evenodd" clip-rule="evenodd" d="M45.1111 78.6939C44.7429 78.6939 44.4445 78.3952 44.4445 78.0272V71.9123L45.7778 71.1445V78.0272C45.7778 78.3952 45.4793 78.6939 45.1111 78.6939Z" fill="#00004D"/>
<path d="M28.2222 59.3335L30 61.1113" stroke="#00004D" stroke-width="2" stroke-linecap="round" stroke-linejoin="round"/>
<path fill-rule="evenodd" clip-rule="evenodd" d="M46 48.3206H34V48.3204C34 46.6024 35.3929 45.2095 37.1111 45.2095H42.8889C44.6071 45.2095 46 46.6024 46 48.3204V48.3206Z" fill="#00004D"/>
</g>
</svg>
